<?xml version="1.0" encoding="utf-8"?>
<!-- Generator: Adobe Illustrator 16.0.0, SVG Export Plug-In . SVG Version: 6.00 Build 0)  -->
<!DOCTYPE svg PUBLIC "-//W3C//DTD SVG 1.1//EN" "http://www.w3.org/Graphics/SVG/1.1/DTD/svg11.dtd">
<svg version="1.1" id="Layer_1" xmlns="http://www.w3.org/2000/svg" xmlns:xlink="http://www.w3.org/1999/xlink" x="0px" y="0px"
	 width="527.834px" height="512px" viewBox="0 0 527.834 512" enable-background="new 0 0 527.834 512" xml:space="preserve">
<g id="linkedin">
	<g>
		<path d="M17.326,512h102.028V171.862H17.326V512z M414.797,160.156c-49.518,0-93.813,18.024-125.24,57.998v-47.356H187.163V512
			h102.394V327.498c0-38.977,35.717-77.021,80.479-77.021c44.762,0,55.77,38.044,55.77,76.089V512h102.028V318.918
			C527.833,184.831,464.348,160.156,414.797,160.156z M66.71,0.13C29.864,0.13,0,27,0,60.056c0,33.056,29.864,59.927,66.71,59.927
			c36.814,0,66.645-26.871,66.645-59.927C133.355,27,103.525,0.13,66.71,0.13z"/>
	</g>
</g>
</svg>
