<?xml version="1.0" encoding="utf-8"?>
<!-- Generator: Adobe Illustrator 16.0.0, SVG Export Plug-In . SVG Version: 6.00 Build 0)  -->
<!DOCTYPE svg PUBLIC "-//W3C//DTD SVG 1.1//EN" "http://www.w3.org/Graphics/SVG/1.1/DTD/svg11.dtd">
<svg version="1.1" id="Layer_1" xmlns="http://www.w3.org/2000/svg" xmlns:xlink="http://www.w3.org/1999/xlink" x="0px" y="0px"
	 width="550.925px" height="512px" viewBox="-19.462 0 550.925 512" enable-background="new -19.462 0 550.925 512"
	 xml:space="preserve">
<g id="twitter">
	<g>
		<path d="M531.463,118.174c-9.282,5.111-37.124,15.333-63.082,17.889c16.645-8.977,41.292-38.367,47.377-61.737
			C499.755,84.548,463,99.445,444.843,99.445c0,0,0,0.034,0.034,0.067c-20.714-21.655-49.836-35.14-82.184-35.14
			c-62.745,0-113.655,50.876-113.655,113.655c0,8.71,1.044,17.184,2.926,25.32h-0.034c-85.139-2.185-184.672-44.856-240.76-117.892
			c-34.433,59.652-4.641,125.963,34.466,150.139c-13.349,1.042-38.031-1.513-49.63-12.81
			c-0.809,39.577,18.258,92.032,87.662,111.032c-13.383,7.229-36.989,5.179-47.312,3.598c3.631,33.456,50.438,77.171,101.583,77.171
			c-18.225,21.049-80.433,59.35-157.401,47.143C32.824,493.575,93.788,512,158.316,512c183.362,0,325.766-148.593,318.099-331.921
			c0-0.201-0.067-0.437-0.067-0.604c0-0.505,0.067-1.009,0.067-1.446c0-0.571-0.067-1.109-0.067-1.715
			C493.026,164.948,515.422,144.773,531.463,118.174z"/>
	</g>
</g>
</svg>
